<mxfile host="Electron" modified="2023-07-06T08:28:21.024Z" agent="Mozilla/5.0 (Macintosh; Intel Mac OS X 10_15_7) AppleWebKit/537.36 (KHTML, like Gecko) draw.io/21.6.1 Chrome/112.0.5615.204 Electron/24.6.1 Safari/537.36" etag="cj4VW5QJyYrcWxoLxqWz" version="21.6.1" type="device">
  <diagram name="Page-1" id="UYcE53nR1hinjPcU2rN3">
    <mxGraphModel dx="1244" dy="950" grid="1" gridSize="10" guides="1" tooltips="1" connect="1" arrows="1" fold="1" page="1" pageScale="1" pageWidth="1169" pageHeight="827" math="0" shadow="0">
      <root>
        <mxCell id="0" />
        <mxCell id="1" parent="0" />
        <mxCell id="n2uw9q_PBYOhzfTkfu4n-2" value="" style="rounded=1;whiteSpace=wrap;html=1;" vertex="1" parent="1">
          <mxGeometry x="470" y="264" width="350" height="336" as="geometry" />
        </mxCell>
        <mxCell id="n2uw9q_PBYOhzfTkfu4n-1" value="&lt;font style=&quot;font-size: 16px;&quot;&gt;&lt;b&gt;Pod&lt;/b&gt;&lt;/font&gt;" style="sketch=0;html=1;dashed=0;whitespace=wrap;fillColor=#2875E2;strokeColor=#ffffff;points=[[0.005,0.63,0],[0.1,0.2,0],[0.9,0.2,0],[0.5,0,0],[0.995,0.63,0],[0.72,0.99,0],[0.5,1,0],[0.28,0.99,0]];verticalLabelPosition=bottom;align=center;verticalAlign=top;shape=mxgraph.kubernetes.icon;prIcon=pod" vertex="1" parent="1">
          <mxGeometry x="480" y="270" width="50" height="48" as="geometry" />
        </mxCell>
        <mxCell id="n2uw9q_PBYOhzfTkfu4n-24" style="edgeStyle=orthogonalEdgeStyle;rounded=0;orthogonalLoop=1;jettySize=auto;html=1;entryX=0;entryY=0.5;entryDx=0;entryDy=0;startArrow=classic;startFill=1;" edge="1" parent="1" source="n2uw9q_PBYOhzfTkfu4n-6" target="n2uw9q_PBYOhzfTkfu4n-9">
          <mxGeometry relative="1" as="geometry" />
        </mxCell>
        <mxCell id="n2uw9q_PBYOhzfTkfu4n-29" style="edgeStyle=orthogonalEdgeStyle;rounded=0;orthogonalLoop=1;jettySize=auto;html=1;entryX=1;entryY=0.5;entryDx=0;entryDy=0;" edge="1" parent="1" source="n2uw9q_PBYOhzfTkfu4n-6" target="n2uw9q_PBYOhzfTkfu4n-27">
          <mxGeometry relative="1" as="geometry" />
        </mxCell>
        <mxCell id="n2uw9q_PBYOhzfTkfu4n-6" value="&lt;b&gt;&lt;font style=&quot;font-size: 14px;&quot;&gt;Application&lt;/font&gt;&lt;/b&gt;" style="ellipse;whiteSpace=wrap;html=1;" vertex="1" parent="1">
          <mxGeometry x="500" y="402" width="90" height="60" as="geometry" />
        </mxCell>
        <mxCell id="n2uw9q_PBYOhzfTkfu4n-9" value="&lt;font style=&quot;font-size: 14px;&quot;&gt;&lt;b&gt;Sidecar&lt;/b&gt;&lt;/font&gt;" style="ellipse;whiteSpace=wrap;html=1;" vertex="1" parent="1">
          <mxGeometry x="700" y="402" width="90" height="60" as="geometry" />
        </mxCell>
        <mxCell id="n2uw9q_PBYOhzfTkfu4n-10" value="" style="shape=cylinder3;whiteSpace=wrap;html=1;boundedLbl=1;backgroundOutline=1;size=15;fillColor=#f5f5f5;fontColor=#333333;strokeColor=#666666;gradientColor=#808080;gradientDirection=east;" vertex="1" parent="1">
          <mxGeometry x="940" y="490" width="60" height="110" as="geometry" />
        </mxCell>
        <mxCell id="n2uw9q_PBYOhzfTkfu4n-12" value="" style="strokeWidth=2;strokeColor=#000000;dashed=0;align=center;html=1;fontSize=8;shape=mxgraph.eip.messageChannel;rotation=-90;" vertex="1" parent="1">
          <mxGeometry x="886" y="250" width="160" height="60" as="geometry" />
        </mxCell>
        <mxCell id="n2uw9q_PBYOhzfTkfu4n-14" value="" style="edgeStyle=elbowEdgeStyle;strokeWidth=2;rounded=0;endArrow=block;startArrow=block;startSize=10;endSize=10;dashed=0;html=1;strokeColor=#808080;exitX=0;exitY=1;exitDx=40;exitDy=0;exitPerimeter=0;" edge="1" parent="1">
          <mxGeometry relative="1" as="geometry">
            <mxPoint x="1000" y="340" as="sourcePoint" />
            <mxPoint x="1080" y="340" as="targetPoint" />
          </mxGeometry>
        </mxCell>
        <mxCell id="n2uw9q_PBYOhzfTkfu4n-17" value="" style="strokeWidth=2;rounded=0;endArrow=block;startArrow=block;startSize=10;endSize=10;dashed=0;html=1;strokeColor=#808080;exitX=0;exitY=0;exitDx=80;exitDy=0;exitPerimeter=0;entryX=1;entryY=0;entryDx=0;entryDy=0;" edge="1" parent="1" source="n2uw9q_PBYOhzfTkfu4n-12" target="n2uw9q_PBYOhzfTkfu4n-9">
          <mxGeometry relative="1" as="geometry">
            <mxPoint x="890.44" y="290" as="sourcePoint" />
            <mxPoint x="889.9955555555557" y="350" as="targetPoint" />
          </mxGeometry>
        </mxCell>
        <mxCell id="n2uw9q_PBYOhzfTkfu4n-18" value="" style="edgeStyle=elbowEdgeStyle;strokeWidth=2;rounded=0;endArrow=block;startArrow=block;startSize=10;endSize=10;dashed=0;html=1;strokeColor=#808080;exitX=0;exitY=1;exitDx=40;exitDy=0;exitPerimeter=0;" edge="1" parent="1">
          <mxGeometry relative="1" as="geometry">
            <mxPoint x="1000" y="220" as="sourcePoint" />
            <mxPoint x="1080" y="220" as="targetPoint" />
          </mxGeometry>
        </mxCell>
        <mxCell id="n2uw9q_PBYOhzfTkfu4n-20" value="" style="edgeStyle=elbowEdgeStyle;strokeWidth=2;rounded=0;endArrow=block;startArrow=block;startSize=10;endSize=10;dashed=0;html=1;strokeColor=#808080;exitX=0;exitY=1;exitDx=40;exitDy=0;exitPerimeter=0;" edge="1" parent="1">
          <mxGeometry relative="1" as="geometry">
            <mxPoint x="1000" y="279.44" as="sourcePoint" />
            <mxPoint x="1080" y="279.44" as="targetPoint" />
          </mxGeometry>
        </mxCell>
        <mxCell id="n2uw9q_PBYOhzfTkfu4n-21" value="&lt;font style=&quot;font-size: 16px;&quot;&gt;&lt;b&gt;Messaging Solution&lt;/b&gt;&lt;/font&gt;" style="text;html=1;strokeColor=none;fillColor=none;align=center;verticalAlign=middle;whiteSpace=wrap;rounded=0;" vertex="1" parent="1">
          <mxGeometry x="936" y="372" width="60" height="30" as="geometry" />
        </mxCell>
        <mxCell id="n2uw9q_PBYOhzfTkfu4n-22" value="" style="strokeWidth=2;rounded=0;endArrow=block;startArrow=block;startSize=10;endSize=10;dashed=0;html=1;strokeColor=#808080;exitX=0;exitY=0.5;exitDx=0;exitDy=0;exitPerimeter=0;" edge="1" parent="1" source="n2uw9q_PBYOhzfTkfu4n-10" target="n2uw9q_PBYOhzfTkfu4n-9">
          <mxGeometry relative="1" as="geometry">
            <mxPoint x="883" y="510" as="sourcePoint" />
            <mxPoint x="720" y="641" as="targetPoint" />
          </mxGeometry>
        </mxCell>
        <mxCell id="n2uw9q_PBYOhzfTkfu4n-23" value="&lt;font style=&quot;font-size: 16px;&quot;&gt;&lt;b&gt;Key-Value&lt;br&gt;Store&lt;br&gt;&lt;/b&gt;&lt;/font&gt;" style="text;html=1;strokeColor=none;fillColor=none;align=center;verticalAlign=middle;whiteSpace=wrap;rounded=0;" vertex="1" parent="1">
          <mxGeometry x="920" y="610" width="100" height="30" as="geometry" />
        </mxCell>
        <mxCell id="n2uw9q_PBYOhzfTkfu4n-25" value="&lt;font style=&quot;font-size: 14px;&quot;&gt;&lt;b&gt;Application&lt;/b&gt;&lt;/font&gt;" style="swimlane;fontStyle=0;childLayout=stackLayout;horizontal=1;startSize=30;horizontalStack=0;resizeParent=1;resizeParentMax=0;resizeLast=0;collapsible=1;marginBottom=0;whiteSpace=wrap;html=1;" vertex="1" parent="1">
          <mxGeometry x="150" y="358" width="230" height="120" as="geometry" />
        </mxCell>
        <mxCell id="n2uw9q_PBYOhzfTkfu4n-26" value="No knowledge of messaging solution" style="text;strokeColor=none;fillColor=none;align=left;verticalAlign=middle;spacingLeft=4;spacingRight=4;overflow=hidden;points=[[0,0.5],[1,0.5]];portConstraint=eastwest;rotatable=0;whiteSpace=wrap;html=1;" vertex="1" parent="n2uw9q_PBYOhzfTkfu4n-25">
          <mxGeometry y="30" width="230" height="30" as="geometry" />
        </mxCell>
        <mxCell id="n2uw9q_PBYOhzfTkfu4n-27" value="No knowledge of Key Value store" style="text;strokeColor=none;fillColor=none;align=left;verticalAlign=middle;spacingLeft=4;spacingRight=4;overflow=hidden;points=[[0,0.5],[1,0.5]];portConstraint=eastwest;rotatable=0;whiteSpace=wrap;html=1;" vertex="1" parent="n2uw9q_PBYOhzfTkfu4n-25">
          <mxGeometry y="60" width="230" height="30" as="geometry" />
        </mxCell>
        <mxCell id="n2uw9q_PBYOhzfTkfu4n-28" value="Only shared message definitions" style="text;strokeColor=none;fillColor=none;align=left;verticalAlign=middle;spacingLeft=4;spacingRight=4;overflow=hidden;points=[[0,0.5],[1,0.5]];portConstraint=eastwest;rotatable=0;whiteSpace=wrap;html=1;" vertex="1" parent="n2uw9q_PBYOhzfTkfu4n-25">
          <mxGeometry y="90" width="230" height="30" as="geometry" />
        </mxCell>
      </root>
    </mxGraphModel>
  </diagram>
</mxfile>
